<?xml version="1.0" encoding="UTF-8"?><svg id="Layer_1" xmlns="http://www.w3.org/2000/svg" viewBox="0 0 311.660339355 63.091331482"><defs><style>.cls-1{fill:#fff;}.cls-2{fill:#253f45;}</style></defs><path class="cls-1" d="M57.776180267,31.727266312c0,14.324216843-11.612258911,25.935770035-25.935770035,25.935770035-14.324216843,0-25.936477661-11.611553192-25.936477661-25.935770035S17.516191483,5.791495323,31.840408325,5.791495323c14.323509216,0,25.935768127,11.611554146,25.935768127,25.935769081"/><path class="cls-1" d="M2.888391733,21.121717453l7.539731741.603206635,3.166659355-1.809621811h3.618533134l4.674322128,2.714076996,4.079601288,2.326555252,3.41204071,1.671722412.801919937,5.501699448,1.346429825,3.614997864,2.914909363-1.837200165.714939117,1.38886261-.603206635,2.110866547,4.523696899-1.055080414,2.563453674-1.357746124,2.110870361-2.412120819-.150623322,2.412120819-2.110870361,4.825653076-2.110870361,2.262203217-.905162811,3.165950775s-1.658290863,1.960243225-4.071117401,1.809619904c-2.412828445-.150623322-6.634571075-1.658287048-8.142940521-2.563453674-1.507659912-.904457092-2.864700317-1.960243225-3.467908859-2.110870361-.603206635-.150623322-4.071115494.452583313-4.373071671.904457092-.30124855.452583313-1.809619904,1.96024704-2.26149559,2.111579895-.452581406.150623322-3.090991974.421463013-3.090991974.421463013l-2.488493919.784240723s-1.658994675-.451873779-1.960245132-1.80891037c-.30195713-1.357040405-5.27752924-9.650604248-5.27752924-9.650604248,0,0-2.412827253-2.563453674-2.412827253-3.166656494,0-.603206635-.301956832-3.619239807,0-4.674322128.301249981-1.05578804,1.960245371-6.182693481,1.960245371-6.182693481"/><path class="cls-2" d="M28.690795898,39.674251556c.159109116.505619049.65694809.818183899,1.169641495.790603638.055864334-.234775543-.010606766-.364185333-.229827881-.462482452-.205783844-.091930389-.407323837-.194469452-.616643906-.277915955-.087684631-.034648895-.19093132-.031112671-.323169708-.050209045M38.950260162,40.223712921c.088394165.037479401.174667358.09475708.266597748.108196259.139308929.019802094.282157898.004951477.423587799.012023926.241142273.01272583.412273407-.109611511.557949066-.281452179.093345642-.111022949.127994537-.227703094.01909256-.347923279-.534614563-.083446503-1.110946655.13577652-1.267230988.509155273M24.2597332,32.123203278c.050916672-.294885635.111732483-.561483383.139312744-.830911636.024749756-.242553711-.130825043-.412981033-.374795914-.442680359-.14850235-.018386841-.298419952-.021213531-.44692421-.031114578-.098295212.603206635.084152222.971637726.682409286,1.304706573M16.550991058,43.211460114c.202957153.113853455.418640137.095466614.618057251.055866241.329538345-.064350128.590480804-.261646271.770097733-.54309845.166183472-.260234833.041723251-.475212097-.265184402-.465309143-.107486725.002826691-.222047806.037479401-.318222046.087688446-.133649826.069301605-.256698608.161231995-.378326416.252456665-.200836182.149917603-.372673035.323879242-.426420212.612400055M28.06354332,38.556938171c.139308929.073543549.226291656.125873566.318222046.166183472.203660965.087684631.407323837.048789978.608158112-.016971588.437730789-.144260406.864145279-.040306091,1.282079697.079200745.299129486.084857941.584819794.214977264.878290176.320343018.054452896.01909256.116682053.014144897.193056107.021923065-.263771057-.434906006-.407323837-.59967041-.714231491-.790603638-.191640854-.119510651-.389644623-.229827881-.59047699-.335903168-.251041412-.132946014-.511981964-.158401489-.79696846-.105365753-.451873779.084152222-.781410217.362064362-1.178127289.661193848M37.002037048,44.979358673c-.272254944-.118095398-.490062714-.210735321-.706451416-.306201935-.345798492-.154159546-.710697174-.206489563-1.084075928-.181034088-.378330231.02545929-.758071899.06293869-1.064273834.333778381-.168304443.149211884-.159820557.417224884.03818512.522590637.342266083.18315506.715644836.292057037,1.097511292.20224762.487232208-.115268707.963150024-.280033112,1.442604065-.428539276.077789307-.024044037.147796631-.074958801.276496887-.142845154M18.942605972,34.423591614c-.019800186.007068634-.038894653.013435364-.057987213.020507812.008483887.070007324.013433456.140724182.026870728.210025787.099000931.501377106.191640854,1.004165649.301958084,1.50271225.089101791.405910492.166183472.819599152.310441971,1.207118988.203660965.549461365.596134186.959617615,1.11730957,1.234703064.113855362.060813904.239021301.103244781.36631012.055866241-.691602707-1.416442871-1.378253937-2.823688507-2.064903259-4.230934143M15.438630104,43.375522614c-1.353504181.598960876-2.48354435,1.502006531-3.686419487,2.366859436.131529808.053035736.230531693.112438202.337312698.132240295.328119278.059402466.656951904.077079773.977296829-.054450989.17537117-.071422577.353579521-.135772705.534609795-.19234848.197297096-.061523438.359946251-.172546387.482281685-.334487915.28003788-.36913681.55795002-.740394592.825961113-1.118019104.185276031-.260234833.353579521-.532489777.52895546-.799797058M21.662338257,30.305803299c.017679214.011316299.035360336.022630692.053037643.033943176.169719696-.100416183.340852737-.198711395.509155273-.30124855.528245926-.323171616,1.009824753-.69584465,1.399467468-1.188734055.295591354-.37408638.313272476-.941936493.038894653-1.322387695-.185276031-.257408142-.418638229-.479454041-.649171829-.738983154-.798383713,1.073469162-1.105998993,2.283416748-1.351383209,3.517408371M36.446914673,38.179317474c.355701447.169715881.714939117.294174194,1.089027405.314685822,1.127918243.06293869,2.16885376-.224876404,3.069778442-.911529541.468845367-.35641098.941932678-.700088501,1.431289673-1.027500153.335899353-.224876404.648464203-.509155273.737567902-.939105988.081325531-.396011353.239021301-.756660461.44197464-1.102462769.072132111-.122337341.134361267-.251041412.188106537-.382572174.065059662-.161937714.116680145-.328830719.174667358-.493595123-.088394165.026870728-.13577652.072128296-.178203583.120922089-.284984589.330951691-.506324768.70998764-.768680573,1.053668976-.665439606.873340607-1.448265076,1.63212204-2.440406799,2.139156342-.140724182.071422577-.297008514.140018463-.450462341.153453827-.67250824.055866241-1.293392181.285690308-1.903675079.547340393-.427124023.182445526-.843643188.389644623-1.308948517.465312958-.023338318.003536224-.043136597.031822205-.08203125.062229156M23.691179276,41.241313934c-.099004745-.200832367-.195177078-.403785706-.297714233-.603206635-.207904816-.405200958-.410860062-.813232422-.630786896-1.211360931-.171131134-.309734344-.219924927-.636444092-.223461151-.98507309-.013437271-1.367645264-.035356522-2.735290527-.062936783-4.102230072-.011314392-.546634674-.149209976-1.075588226-.254577637-1.612323761-.045257568.058692932-.081321716.116680145-.089101791.178207397-.062936783.493595123-.227705002.958908081-.3832798,1.427043915-.038894653.115268707-.052330017.23972702-.07283783.361358643-.033943176.205078125-.053037643.41368866-.098295212.616641998-.169010162.757369995-.249628067,1.5182724-.105365753,2.287658691.045257568.239021301.101831436.486526489.207904816.702919006.268720627.544509888.564313889,1.075588226.856370926,1.608078003.284275055.520469666.64704895.980121613,1.154083252,1.332286835M28.896577835,36.100265503c.161937714.023338318.311855316.043136597.459651947.067886353.316808701.05374527.652002335.061523438.946180344.174671173.766559601.293468475,1.34926033.831619263,1.816692352,1.499881744.159111023.226997375.289936066.464603424.352165222.73897934.031822205.137187958.097587585.266601562.14496994.400253296.048088074.137187958.132240295.207904816.285690308.231239319.338024139.053035736.625839233.210735321.850006104.476623535.09122467.108196259.186691284.214271545.285690308.31609726.041015625.041725159.095466614.070011139.15486908.111732483.054450989-.400249481.172546387-.74817276.332366943-1.091854095.354991913.581993103.369842529,1.265110016.608863831,1.876094818.526832581-.193054199,1.034572601-.134357452,1.571308136-.008487701-.117389679-.270839691-.258113861-.500667572-.315395355-.749588013-.1039505-.453998566-.337314606-.842227936-.542388916-1.247428894-.200832367-.396011353-.509155273-.666145325-.905872345-.866977692-.345092773-.174671173-.680286407-.379745483-.989315033-.611690521-.294883728-.222049713-.509860992-.524711609-.654827118-.881122589.605327606-.541683197,1.001338959-1.194393158,1.231163025-1.955295563-.144966125.078495026-.273670197.170425415-.396713257.269428253-.325294495.261646271-.635032654.545219421-.975879669.784946442-.511981964.361358643-1.066394806.418636322-1.62858963.108901978-.457530975-.253162384-.821718216-.623008728-1.10316658-1.052253723-.386110306-.588356018-.673217773-1.233287811-.889608383-1.902259827-.270133972-.835861206-.372671127-1.702840805-.393886566-2.57901001-.015556335-.598257065-.00777626-1.197927475-.05657196-1.792648315-.024044037-.294885635-.105367661-.605327606-.241140366-.867685318-.352872849-.685235977-.89031601-1.221969604-1.506250381-1.678796768-.274377823-.202953339-.554412842-.399543762-.837278366-.591184616-.161230087-.109609604-.332363129-.203662872-.53178215-.325292587-.007780075.127996445-.016969681.209318161-.017679214.291349411-.001413345.417930603-.000707626.835155487,0,1.25308609.000709534.807577133-.004240036,1.613739014-.198003769,2.40504837-.005657196.023336411.003536224.050914764.008485794.102539062.256698608-.226291656.486524582-.430660248.586940765-.763023376.100418091-.331659317.140726089-.664731979.170425415-1.005580902.028993607-.323879242.08203125-.646345139.124458313-.969516754.079910278.02970314.106075287.065061569.125875473.103244781.210733414.408033371.350749969.84081459.433486938,1.289859772.108194351.587650299.197299957,1.178127289.299835205,1.766485214.024749756.142139435.071424484.280742645.107488632.420051575.098295212-.094051361.156282425-.184566498.172546387-.281448364.030410767-.186689377.037481308-.376916885.053743362-.565727234.01414299-.160526276.02050972-.32175827.045259476-.480161667.00777626-.050207138.065765381-.091932297.133651733-.180326462.06152153.194469452.128702164.333778381.147089005.478748322.092638016.733324051.210027695,1.466646194.249628067,2.203508377.068593979,1.279249191.079200745,2.562036514.278617859,3.831388474.064352036.410858154.136482239.82101059.207199097,1.245304108M9.799743652,30.602811813c-.024753571.008485794-.048793793.016969681-.073547363.026163101-.029700279-.043136597-.065054893-.084152222-.088395119-.130115509-.153450012-.305494308-.304079056-.612400055-.456822395-.917892456-.22558403-.449754715-.439146996-.905164719-.680285454-1.346429825-.393179893-.719182968-.965276241-1.289152145-1.579794407-1.817398071-.103248119-.088394165-.243970871-.147798538-.37691927-.185983658-.444801807-.127996445-.896676064-.232656479-1.340771198-.362066269-.317512512-.092638016-.637151241-.188810349-.939109325-.32175827-.441267729-.195173264-.867682457-.424293518-1.299756765-.639978409-.099001884-.049501419-.195883512-.102539062-.323879004-.169715881-.309026003,1.233991623-.545929193,2.444646835-.63997817,3.690662384.339433432-.437730789.637151003-.904457092,1.084779978-1.308952332.007073164.093347549.016266584.128705978.010607004.161231995-.038187265.223463058-.08839488.444097519-.118802309.668264389-.106781721.789897919-.198003769,1.581207275-.470261574,2.338577271-.21992445.610277176-.348626852,1.240356445-.364893436,1.891649246-.001413584.067886353,0,.135772705,0,.203659058.505621672-.722009659.900922298-1.492105484,1.444018841-2.22401619.058694363.308322906.004245996.546636581-.058694363.784240723-.115975142.430660248-.198710442.866977692-.205783606,1.315317154-.002827168.132946014-.020507097.26518631-.026868105.398132324-.002832413.058692932.004240513.118095398.00919342.225582123.185977936-.131530762.333773851-.231239319.476622581-.338024139.49925518-.373378754.879001617-.862026215,1.281370163-1.330165863.353579521-.411567688.596137047-.892433167.865567684-1.356330872.070714951-.121631622.121629238-.270133972.340847015-.29842186-.099001884.502792358-.189517021.976587296-.28710556,1.448968887-.06152153.295595169-.166889668.585529327-.194469929.88394928-.041014194.433490753-.036768436.871929169-.037480354,1.308246613,0,.118095398.053040028.236190796.087687969.377624512.203663349-.415809631.396719456-.784946442.566436291-1.164691925.235484123-.526832581.453288078-1.061445236.67675209-1.593229294.030407429-.072130203.047380447-.150625229.178910255-.106781006.003539085.063644409.016266346.136482239.009900093.207197189-.030407429.359239578-.074955463.717769623-.097588539,1.077713013-.026867867.44197464-.102535725.884654999-.004240513,1.329460144.059401035.270133972.204370022.453994751.480161667.491474152.261645317.035358429.531076431.015556335.792015076.057277679.313272476.049499512.524008751-.086273193.717059135-.304077148.169722557-.191638947.353579521-.370552063.531788826-.554409027.334486008-.344387054.748173714-.40378952,1.179540634-.271549225.342260361.104660034.66755867.265892029.995677948.41368866.260944366.117385864.52895546.126579285.82242775.095466614.020506859-.271549225.046668053-.534614563.059401512-.797676086.01343441-.305496216-.01556015-.603206635-.130115509-.894557953-.198716164-.502788544-.383992195-1.011238098-.56714344-1.519683838-.718473434-1.995601654-1.609495163-3.911296844-2.633460045-5.767589569-.088395119-.161231995-.147795677-.338022232-.241850853-.557949066.247504234.070007324.377620697.190223694.487235069.342266083,1.04164505,1.451089859,2.19926548,2.810956955,3.318698883,4.200525284.250331879.311149597.480862617.632907867.719180107.951129913.283571243.37903595.598257065.734737396.902336121,1.09821701.036061287.043136597.092635155.070007324.166182518.123752594-.182449341-1.634952545-.602502823-3.177972794-.975176811-4.737966537,1.234701157,1.444021225,2.229673386,3.045736313,3.123521805,4.756353378.120222092-.139308929.213563919-.233360291.290645599-.339435577.144968033-.199419022.275085449-.410154343.420757294-.608863831.210027695-.284984589.588356018-.361358643.907993317-.203660965.454704285.223461151.742519379.607448578,1.000631332,1.02255249.056573868.090515137.109609604.182447433.183153152.30619812.110319138-.222753525.199419022-.400251389.286401749-.579162598.272254944-.562896729.538852692-1.129333496.817474365-1.690109253.333072662-.671094894.678165436-1.336530685,1.016187668-2.006212234.033943176-.067178726.053037643-.14213562.101125717-.275085449-.161939621.07425499-.256700516.114561081-.348628998.160526276-.373380661.185983658-.656244278.478748322-.934160233.780704498-.250331879.272256851-.497838974.549463272-.767972946.801210403-.169010162.157699585-.333778381.305494308-.403079987.534612656-.00494957.016973495-.045257568.022630692-.083444595.041013718,0-.050207138-.004243851-.087684631,0-.123752594.131532669-1.081953049.373380661-2.13703537.923549652-3.08745575.30761528-.531785965.669679642-1.040939331,1.254501343-1.323802948.04737854-.023336411.086978912-.061523438.132946014-.095464706-.028287888-.03465271-.043136597-.059400558-.064352036-.077787399-.729082108-.623714447-1.463111877-1.240358353-2.330091476-1.671722412-.396009445-.196592331-.72413063-.478040695-1.051546097-.76868248-.244678497-.217098236-.489355087-.492181778-.830207825-.516933441-.361354828-.026166916-.717765808-.151332855-1.086193085-.072130203-.518348694.110319138-1.045890808.187397003-1.553627968.334486008-.59967041.172546387-1.182374001.403787613-1.772144318.61098671-.056573868.019800186-.111728668.046670914-.127288818.053741455.266598701.289228439.532489777.572799683.79272747.861322403.279325485.309736252.555829048.622297287.82949543.936983109.187401772.214269638.361359596.439147949.552295685.649881363.363479614.400957108.736859322.792724609,1.102459908,1.19156456.07142067.077787399.127996445.169715881.19093132.255285263-.014846802.012020111-.029701233.024040222-.043842316.036064148-.101829529-.082738876-.204370499-.164060593-.305492401-.247507095-.802627563-.661899567-1.673849106-1.207828522-2.639826775-1.605955124-1.029624939-.423589706-2.091070175-.737569809-3.175849915-.976589203-.405913353-.08980751-.80899334-.199417114-1.21914196-.262355804-.7114048-.109609604-1.429878235-.175373077-2.141278267-.285692215-1.178127289-.181739807-2.325140953-.044549942-3.458013535.287107468-.115262985.033941269-.163350344.104658127-.193050861.217098236-.113854885.420757294-.238311291.839395523-.356412172,1.259449005-.012727261.043844223-.009900093.091932297-.015554428.159109116.13152957.00636673.253164291.016973495.375500202.017679214.512689352.002120972,1.025384188,0,1.538780451.000707626.453995228.001413345.901628971.017679214,1.354917526.101125717.496422768.09122467.978704929.215682983,1.454626083.378330231.241138458.082738876.437728405.223463058.606743813.406616211.090515137.097585678.166889191.208610535.260938644.30124855.241143227.238311768.342972755.536026001.40308094.859905243.086274147.46531105.16830349.932743073.282864571,1.392396927.143555641.579870224.333072662,1.14771843.473794937,1.72829628.101834297.42146492.156282425.854955673.23195076,1.282785416M10.245958328,47.344806671c-.037474632.11031723-.068594933.176082611-.082735062.246089935-.103247643.502082825-.206490517,1.00345993-.302664757,1.506958008-.119508743.619472504-.367013931,1.195804596-.593304634,1.779212952-.066473961.171131134-.052333832.29347229.080615044.431365967.501375198.519054413.975877762,1.064273834,1.487153053,1.573429108,2.485664368,2.479297638,5.328447342,4.449447632,8.516319275,5.920337677,2.20775032,1.018306732,4.508846283,1.745269775,6.901165009,2.189365387,1.402297974.260234833,2.815200806.42288208,4.238712311.477333069,1.42492485.054450989,2.84702301.012023926,4.266292572-.142845154,1.228336334-.135066986,2.444648743-.330947876,3.646110535-.614521027,2.668113708-.628665924,5.199745178-1.609493256,7.593475342-2.946025848,2.344234467-1.308952332,4.469245911-2.907131195,6.385650635-4.786052704,1.662528992-1.630001068,3.110080719-3.433258057,4.353271484-5.40057373,1.309658051-2.071269989,2.349182129-4.271949768,3.115036011-6.600624084.636444092-1.934078217,1.075588226-3.911296844,1.306121826-5.936599731.115974426-1.0197258.193763733-2.040863037.205078125-3.066244125.0063591-.635734558-.02191925-1.27217865-.040306091-1.907915115-.036773682-1.244602203-.190227509-2.476472855-.396720886-3.704101562-.37903595-2.255836487-1.017597198-4.43529892-1.902965546-6.542636871-1.207820892-2.876018524-2.827217102-5.500284195-4.853233337-7.872093201-1.113067627-1.301882744-2.325843811-2.505464554-3.646820068-3.598024368-2.149059296-1.777091503-4.493286133-3.241622925-7.051086426-4.35822916-3.126350403-1.364110708-6.389183044-2.16885829-9.79486084-2.397269249-1.690816879-.113849401-3.378807068-.089096308-5.063259125.083447456-1.294101715.132943034-2.574058533.355700016-3.841287613.657658339-2.74307251.654825926-5.334104538,1.688696623-7.778047562,3.090282202-2.63911438,1.514032364-4.990421295,3.393659592-7.056739807,5.627578735-2.422729492,2.619314194-4.319329739,5.578071594-5.696167469,8.869897842-.034653187.082735062-.055867195.170423508-.094761372.289932251,1.098219395.103244781,2.128550529.408033371,3.161002636.513399124,3.313039303-6.994513512,8.490863323-11.924115181,15.808543682-14.397057533,7.315563202-2.47151804,14.434534073-1.789112091,21.269227982,1.810331345,13.41834259,7.41809845,17.785057068,24.171410561,10.055099487,37.073529243-2.464450836,4.114253998-5.827697754,7.326877594-10.033172607,9.633628845-4.123447418,2.262203217-8.552383423,3.378101349-13.253578186,3.243736267-8.649971008-.247505188-15.557502747-3.955848694-20.90716362-10.746696472M12.316521645,47.775466919c6.830451012,8.261035919,18.724162102,11.520332336,29.292654991,6.983200073,10.915710449-4.687049866,17.230644226-16.341033936,14.826301575-28.292024612-2.331501007-11.586805344-12.563388824-20.217679977-24.680561066-20.260818481-11.446784973-.041014194-19.819553375,7.397591591-22.96711731,14.578792572.618763924-.0664711,1.221968651-.12021637,1.793352127-.338726044.336611748-.127996445.65836525-.29347229.990023613-.432781219.62866497-.263771057,1.229042053-.602500916,1.900139809-.753126144.517636299-.116682053,1.038812637-.234069824,1.564234734-.289936066.400959969-.043136597.814647675-.010606766,1.21914196.025457382.60603714.055160522,1.168228149.285692215,1.741027832.479454041.725543976.246091843,1.391687393.592597961,2.018939972,1.029624939.731908798.509859085,1.480083466.997091293,2.22259903,1.492103577.057987213.038894653.127288818.061523438.231243134.110319138.077785492-.316099167.161230087-.597549438.214267731-.88394928.071424484-.386110306.032529831-.755952835-.232654572-1.074882507-.109611511-.132238388-.127288818-.283571243-.026872635-.471675873.035360336.018384933.041017532.059400558.061523438.090517044.407323837.625835419.920013428,1.156204224,1.475839615,1.651216507.449047089.399543762.83939743.854955673,1.113777161,1.395225525.193763733.379743576.373380661.767972946.534612656,1.163274765.084857941.207199097.206489563.313978195.425710678.28427887.271549225-.036064148.556533813-.044548035.808280945-.13860321.45116806-.168302536.880414963-.393180847,1.320972443-.59047699.249628067-.111732483.433490753-.29347229.605329514-.502788544.251747131-.306907654.382570267-.673217773.552997589-1.02255249.187397003-.382574081.368429184-.772926331.602500916-1.126506805.357116699-.539562225.928499222-.828790665,1.481498718-1.122261047.152038574-.080617905.347919464-.080617905.581991196-.130119324-.288520813.495012283-.544513702.927085876-.790603638,1.364110947-.073545456.130115509-.141431808.270841599-.171840668.415809631-.087688446.417221069-.15769577.837982178-.2305336,1.258743286-.21639061,1.24389267-.660486221,2.391613007-1.436239243,3.398607254-.138605118.180324554-.135774612.37903595.020507812.56219101.07283783.086275101.170425415.152038574.246091843.236190796.132946014.146383286.277914047.287815094.380451202.453998566.315395355.5098629.588356018,1.045181274.775047302,1.613735199.132238388.403083801.274377823.8266716.278621674,1.242479324.00919342.866977692.084152222,1.72476387.194469452,2.581840515.065057755.509860992.162647247,1.012649536.432781219,1.462406158.046670914.078495026.101829529.17678833.177495956.208610535.265890121.111732483.542390823.171840668.818891525.018386841.057983398-.031822205.113143921-.074958801.175373077-.093345642.526126862-.154159546,1.047306061-.338729858,1.584037781-.444095612.661903381-.130825043,1.130039215.144966125,1.251670837.887485504.08556366.519760132.05657196,1.058616638.077079773,1.588985443.004241943.111026764.000709534.222045898.000709534.377624512.14850235-.045257568.253868103-.07283783.356407166-.109607697.357116699-.125167847.705039978-.282157898,1.069225311-.376209259.927085876-.237606049,1.86265564-.440559387,2.791156769-.673213959.328830719-.08203125.66897583-.173961639.927791595-.408031464.344387054-.311859131.68170166-.635028839.994262695-.97870636.747470856-.821720123,1.474430084-1.662532806,2.291908264-2.418485641.067886353-.062936783.140014648-.12021637.23406601-.200126648-.050918579.224876404-.100418091.414396286-.135772705.606744766-.10112381.55229187-.019802094,1.113067627-.091934204,1.671722412-.092636108.722717285-.141429901,1.449680328-.304077148,2.163909912-.183860779.806159973-.345802307,1.616565704-.880413055,2.287662506-.054454803.068595886-.070716858.172546387-.089809418.263061523-.05374527.25881958-.057983398.538150787-.158401489.77645874-.241142273.570678711-.567138672,1.098220825-1.029621124,1.520393372-.512691498.466724396-1.023262024.936985016-1.613739014,1.30683136-.143554688.090515137-.208614349.208610535-.188812256.378330231.024044037.207199097.032531738.41651535.061523438.622299194.046672821.33165741.048793793.656951904-.030406952.987194061-.07283783.299129486-.260944366.522590637-.420761108.76726532-.212146759.326000214-.253162384.659778595-.056575775,1.014064789.090518951.162647247.118095398.344387054,0,.511985779-.386814117.550170898-.789188385,1.091144562-1.163982391,1.650508881-.201541901.301250458-.490058899.403079987-.814647675.44834137-.366306305.050209045-.737567902.069301605-1.102458954.125873566-.548755646.084152222-1.075588226.231239319-1.495643616.630786896-.072834015.069301605-.171840668.119510651-.267303467.15486908-.737567902.272254944-1.494228363.258113861-2.242401123.081321716-.95042038-.224170685-1.779918671-.6916008-2.484251022-1.375423431-.114559174-.111022949-.257404327-.193054199-.381864548-.295593262-.415103912-.34085083-.939815521-.391765594-1.429876328-.502082825-.704332352-.159111023-1.394517899-.35994339-2.082586288-.573505402-.089101791-.027580261-.176080704-.070713043-.253868103-.122337341-.793434143-.525421143-1.477962494-1.149131775-1.919937134-2.016113281-.179618835-.352870941-.406616211-.687358856-.649881363-.999923706-.495716095-.635028839-1.132867813-.669677734-1.720518112-.37550354-.270841599.13577652-.496425629.377624512-.717060089.596134186-.450460434.446216583-.947593689.740394592-1.615858078.645637512-.29842186-.042430878-.603206635-.05657196-.905870438-.057987213-.306201935-.001415253-.577749252.092639923-.745349884.381866455-.051620483.089809418-.128702164.164768219-.18456459.252456665-.300544739.478038788-.751005173.711402893-1.29268837.781410217-.271551132.034648895-.5473423.041015625-.821014404.055866241-.406614304.021923065-.596131325.170425415-.717765808.552997589-.021213531.0664711-.076369286.126583099-.127288818.178913116-.086269379.087688446-.183150291.165473938-.272958755.24962616-.294178009.27437973-.618763924.508449554-.996390343.645637512-.243970871.088394165-.507029533.124462128-.775753975.186691284M62.876991272,31.497367859c.11031723,16.802810669-13.524421692,31.245121002-31.218250275,31.25289917-17.461174011.007778168-31.262804031-14.148841858-31.250070572-31.262802124C.422104001,14.211568832,14.436585426.264974296,31.641771317.262147218c17.476026535-.002827078,31.330686569,14.267640799,31.235219955,31.235222548"/><path class="cls-1" d="M61.136745453,31.545665741c0,16.316280365-13.274795532,29.591075897-29.591077805,29.591075897-16.316286087.000003815-29.591079593-13.274791718-29.591079593-29.591075897S15.229381561,1.954588056,31.545665741,1.954588056c16.316280365,0,29.591075897,13.274794459,29.591075897,29.591077685M31.545665741,0C14.150963783,0,0,14.150963783,0,31.545665741c0,17.394702911,14.150963783,31.545665741,31.545665741,31.545665741,17.393993378,0,31.545665741-14.15096283,31.545665741-31.545665741S48.939662933,0,31.545665741,0"/><path class="cls-1" d="M93.318710327,22.501037598c-.191635132-2.37181282-1.453208923-3.061290741-2.525978088-3.061290741-1.528877258,0-2.371810913.995677948-2.371810913,2.717611313,0,4.706144333,9.643531799,6.963396072,9.643531799,14.462114334,0,4.554813385-3.061286926,7.080783844-7.500831604,7.080783844-4.39994812,0-6.923797607-3.521656036-7.11756134-7.652877808l4.516624451-.652004242c.191635132,2.794696808,1.301170349,4.170825958,2.830047607,4.170825958,1.646980286,0,2.757217407-.878292084,2.757217407-2.525970459,0-5.470584869-9.64352417-6.9237957-9.64352417-14.845394135,0-4.39994812,2.678009033-6.886318207,7.346672058-6.886318207,3.864631653,0,6.159362793,2.792575836,6.582237244,6.69467926,0,0-4.516624451.497838974-4.516624451.497840881Z"/><path class="cls-1" d="M101.435623169,43.316833496V15.689539909h4.285385132v8.954045296c1.570610046-1.376131058,2.486373901-2.296852112,4.974868774-2.296852112,2.257255554,0,3.596611023,1.647680283,3.596611023,4.32569313v16.644407272h-4.285385132v-15.955633163c0-1.03245163-.61239624-1.49281311-1.531005859-1.49281311-.917884827,0-1.759407043.574920654-2.755088806,1.301172256v16.147274017h-4.285385132Z"/><path class="cls-1" d="M126.811325073,32.871105194c-3.902107239,2.218357086-4.860305786,3.634090424-4.860305786,5.433101654,0,1.339359283.689483643,1.874679565,1.991355896,1.874679565,1.18662262,0,2.142700195-.878997803,2.86894989-1.913574219,0,0,0-5.394210815,0-5.394207001ZM117.971832275,28.777359009c.229125977-4.170824051,2.871780396-6.430200577,6.888435364-6.430200577,3.979896545,0,6.23714447,1.836494446,6.23714447,5.586559296v13.202661514c0,.649879456.154159546,1.491401672.268707275,2.180171967h-4.096572876c-.037475586-.574214935-.18951416-1.109531403-.229110718-1.607372284-1.607383728,1.301879883-2.946022034,1.990653992-5.01234436,1.990653992-2.90713501,0-4.362472534-1.990653992-4.362472534-4.631183624,0-4.514507294,2.984214783-7.00087738,9.145690918-9.335208893v-1.224802017c0-1.721931458-.688774109-2.64053154-2.10521698-2.64053154-1.951057434,0-2.371803284,1.147716522-2.448890686,2.909252167h-4.285385132.000015259Z"/><path class="cls-1" d="M143.537338257,22.730014801h4.322875977l-5.393508911,22.117111206c-.917877197,3.750774384-2.640533447,4.935264587-5.855270386,4.935264587h-1.797592163v-3.518825531h1.033157349c2.142684937,0,2.830047607-1.147720337,2.830047607-3.330013275,0-.841518402-.189529419-1.721935272-.458236694-2.715492249l-4.477035522-17.488046646h4.362472534l2.755096436,13.163061142h.077087402l2.600921631-13.163063049-.000015259.000003815Z"/><path class="cls-1" d="M159.117324829,29.235242844c0-2.37181282-.842941284-3.366786957-2.37322998-3.366786957-1.530990601,0-2.372512817.994974136-2.372512817,3.366786957v7.576505661c0,2.373226166.841522217,3.366783142,2.372512817,3.366783142,1.530288696,0,2.37322998-.993556976,2.37322998-3.366783142v-7.576505661ZM150.086196899,30.001804352c0-4.516626358,1.759414673-7.654998779,6.657897949-7.654998779,4.897796631,0,6.659317017,3.138372421,6.659317017,7.654998779v6.045505524c0,4.514503479-1.761535645,7.652877808-6.659317017,7.652877808-4.898483276,0-6.657897949-3.138374329-6.657897949-7.652877808v-6.045505524Z"/><path class="cls-1" d="M167.309616089,43.316833496v-20.586818695h4.056259155v2.065612793c1.797607422-1.528173447,2.71762085-2.448892593,5.203994751-2.448892593,2.257247925,0,3.596603394,1.647680283,3.596603394,4.32569313v16.644405365h-4.285385132v-15.955633163c0-1.03245163-.61239624-1.49281311-1.531005859-1.49281311-.917892456,0-1.759399414.574920654-2.755096436,1.301172256v16.147274017h-4.285385132.000015259Z"/><path class="cls-1" d="M192.685256958,32.871105194c-3.904220581,2.218357086-4.860290527,3.634090424-4.860290527,5.433101654,0,1.339359283.689468384,1.874679565,1.991348267,1.874679565,1.184509277,0,2.142684937-.878997803,2.868942261-1.913574219,0,0,0-5.394210815,0-5.394207001ZM183.84576416,28.777359009c.231231689-4.170824051,2.869659424-6.430200577,6.888442993-6.430200577,3.979888916,0,6.2371521,1.836494446,6.2371521,5.586559296v13.202661514c0,.649879456.152038574,1.491401672.266586304,2.180171967h-4.092315674c-.039596558-.574214935-.193756104-1.109531403-.231231689-1.607372284-1.605270386,1.301879883-2.946029663,1.990653992-5.012359619,1.990653992-2.908554077,0-4.362472534-1.990653992-4.362472534-4.631183624,0-4.514507294,2.986343384-7.00087738,9.145706177-9.335208893v-1.224802017c0-1.721931458-.688766479-2.64053154-2.105209351-2.64053154-1.951049805,0-2.371810913,1.147716522-2.448898315,2.909252167h-4.285400391Z"/><path class="cls-1" d="M217.957855225,24.91245079v-2.142690659c0-2.334335327-1.070648193-3.330013275-2.294723511-3.330013275-1.913574219,0-2.525970459.995677948-2.525970459,3.061290741v14.004577637c0,2.067737579.61239624,3.060588837,2.525970459,3.060588837,1.721923828,0,2.294723511-.992851257,2.294723511-2.792568207v-3.329307556h4.745742798v3.175853729c0,3.904224396-2.296844482,7.080078125-7.040466309,7.080078125-4.974868774,0-7.269592285-3.175853729-7.269592285-7.080078125v-14.233699799c0-3.902109146,2.294723511-7.077959061,7.269592285-7.077959061,4.743637085,0,7.040466309,3.441747665,7.040466309,7.575798035v2.028133392s-4.745742798,0-4.745742798-.000003815Z"/><path class="cls-1" d="M236.101791382,30.306306839v-1.070638657c0-2.37181282-.841522217-3.367492676-2.371810913-3.367492676-1.531005859,0-2.372528076.995681763-2.372528076,3.367492676v1.070638657h4.744338989ZM240.387176514,33.827251434h-9.029724121v2.984210968c0,2.373931885.841522217,3.367492676,2.372528076,3.367492676,1.530288696,0,2.371810913-.993560791,2.371810913-3.367492676v-.458240509h4.285385132c-.074951172,4.361049652-1.873962402,7.346679688-6.657196045,7.346679688-4.898498535,0-6.657913208-3.138374329-6.657913208-7.652877808v-6.04479599c0-4.517333984,1.759414673-7.654998779,6.657913208-7.654998779,4.897781372,0,6.657196045,3.137664795,6.657196045,7.654998779v3.825023651Z"/><path class="cls-1" d="M252.829223633,43.316833496v-15.955633163c0-1.03245163-.651992798-1.49281311-1.49281311-1.49281311-.918609619,0-1.760131836.574920654-2.755096436,1.301172256v16.147274017h-4.286102295v-20.586818695h4.056976318v2.065612793c1.79901123-1.528173447,2.717605591-2.448892593,4.745742798-2.448892593,2.140579224,0,2.830032349.766559601,3.748657227,2.448892593,2.065612793-1.988534927,3.214752197-2.448892593,4.783233643-2.448892593,2.678009033,0,4.016662598,1.647680283,4.016662598,4.32569313v16.644405365h-4.285369873v-15.955633163c0-1.03245163-.68737793-1.49281311-1.528869629-1.49281311-.920043945,0-1.761566162.574920654-2.71762085,1.301172256v16.147274017h-4.285400391Z"/><path class="cls-1" d="M278.629974365,30.306306839v-1.070638657c0-2.37181282-.84362793-3.367492676-2.373931885-3.367492676-1.531005859,0-2.371826172.995681763-2.371826172,3.367492676v1.070638657h4.745758057ZM282.915374756,33.827251434h-9.03112793v2.984210968c0,2.373931885.840820312,3.367492676,2.371826172,3.367492676,1.530303955,0,2.373931885-.993560791,2.373931885-3.367492676v-.458240509h4.285369873c-.077087402,4.361049652-1.876098633,7.346679688-6.659301758,7.346679688-4.897766113,0-6.657897949-3.138374329-6.657897949-7.652877808v-6.04479599c0-4.517333984,1.760131836-7.654998779,6.657897949-7.654998779s6.659301758,3.137664795,6.659301758,7.654998779v3.825023651Z"/><path class="cls-1" d="M286.821868896,43.316833496v-20.586818695h4.056274414v2.065612793c1.799743652-1.528173447,2.71762085-2.448892593,5.203979492-2.448892593,2.257232666,0,3.596618652,1.647680283,3.596618652,4.32569313v16.644405365h-4.285369873v-15.955633163c0-1.03245163-.61239624-1.49281311-1.531005859-1.49281311-.917907715,0-1.759429932.574920654-2.755096436,1.301172256v16.147274017h-4.285400391Z"/><path class="cls-1" d="M302.133483887,26.251455307v-3.520946503h2.371826172v-5.547664642h4.285369873v5.547664642h2.869659424v3.520946503h-2.869659424v11.861181259c0,1.072761536.458251953,1.685161591,1.453918457,1.685161591h1.415740967v3.672985077c-.57421875.152038574-1.069946289.229118347-2.142700195.229118347-3.213317871,0-5.012329102-1.49281311-5.012329102-4.631183624v-12.817260742s-2.371826172,0-2.371826172-.000001907Z"/></svg>